#!OML:ASF F:\VICON\USERDATA\INSTALL\rory3\rory3.ASF
:FULLY-SPECIFIED
:DEGREES
903
root 1.57052 16.6117 5.19065 -7.89249 -128.018 6.96026
lowerback 8.41785 -0.31803 -4.06772
upperback -4.0667 -0.942951 0.184456
thorax -8.99773 -0.223213 2.63875
lowerneck -20.9237 -4.55337 -16.4284
upperneck -12.6588 -3.57014 14.3125
head 0.0520652 -1.55877 7.01355
rclavicle 7.11649e-014 -3.18055e-015
rhumerus 81.538 -29.3656 -31.9703
rradius 37.4022
rwrist 23.7738
rhand -43.2933 -2.2233
rfingers 7.12502
rthumb -16.1408 -31.5712
lclavicle 7.11649e-014 -3.18055e-015
lhumerus 77.6141 34.0716 28.649
lradius 35.2071
lwrist -3.03317
lhand -17.231 22.8307
lfingers 7.12502
lthumb 9.01244 52.6182
rfemur -5.15778 2.43184 14.0104
rtibia 42.9982
rfoot -28.4162 4.64253
rtoes -7.06912
lfemur -14.1846 6.28541 -9.2622
ltibia 51.8198
lfoot -27.5062 -3.92828
ltoes -14.0676
904
root 1.57778 16.5556 5.20181 -7.77879 -128.42 6.74946
lowerback 8.41096 -0.328303 -4.22598
upperback -3.99468 -0.977107 0.133845
thorax -8.91188 -0.234911 2.67836
lowerneck -21.3525 -4.60314 -16.4571
upperneck -12.3193 -3.58452 14.2658
head 0.210317 -1.55289 6.99227
rclavicle 2.24627e-014 -7.95139e-016
rhumerus 80.8647 -29.3323 -31.7851
rradius 38.0561
rwrist 23.921
rhand -43.8346 -1.64828
rfingers 7.12502
rthumb -16.662 -30.9531
lclavicle 2.24627e-014 -7.95139e-016
lhumerus 75.8613 33.8684 27.3899
lradius 37.1059
lwrist -2.71392
lhand -17.0359 22.2732
lfingers 7.12502
lthumb 9.20073 52.0525
rfemur -5.54976 2.36903 13.8065
rtibia 43.6695
rfoot -29.0154 4.86715
rtoes -7.04851
lfemur -14.0838 7.22328 -9.27245
ltibia 52.0437
lfoot -28.5042 -3.96959
ltoes -13.5554
905
root 1.58205 16.5104 5.21292 -7.86131 -128.819 6.65361
lowerback 8.53422 -0.222459 -4.20022
upperback -3.92998 -0.851873 -0.0569065
thorax -8.92621 -0.182522 2.44207
lowerneck -21.8311 -4.73669 -16.0666
upperneck -11.7609 -3.7902 13.944
head 0.450797 -1.65418 6.78782
rclavicle -8.42847e-014 -1.27222e-014
rhumerus 79.8486 -29.4694 -31.4015
rradius 38.6201
rwrist 24.0319
rhand -44.1631 -1.70924
rfingers 7.12502
rthumb -16.9782 -30.9872
lclavicle -8.42847e-014 -1.27222e-014
lhumerus 74.5275 33.4057 26.3575
lradius 39.0371
lwrist -2.29864
lhand -16.8396 21.4809
lfingers 7.12502
lthumb 9.39011 51.2518
rfemur -5.74549 2.37086 13.6586
rtibia 44.2799
rfoot -29.4962 5.05195
rtoes -8.94549
lfemur -13.7015 8.0393 -9.18729
ltibia 52.0662
lfoot -29.4562 -4.23452
ltoes -12.5982
906
root 1.57731 16.4779 5.22535 -7.88753 -129.231 6.51621
lowerback 8.59602 -0.124908 -4.06397
upperback -3.88736 -0.727414 -0.296041
thorax -8.92859 -0.139308 2.09136
lowerneck -21.865 -4.7791 -15.7169
upperneck -11.7685 -3.93241 13.6293
head 0.452367 -1.74501 6.6126
rclavicle -7.69297e-014 -5.56597e-015
rhumerus 78.9645 -29.5548 -31.0534
rradius 38.9968
rwrist 24.076
rhand -46.432 -1.27708
rfingers 7.12502
rthumb -19.1611 -30.3532
lclavicle -7.69297e-014 -5.56597e-015
lhumerus 73.1662 32.9248 25.3339
lradius 40.9838
lwrist -2.26904
lhand -16.6329 20.8122
lfingers 7.12502
lthumb 9.58959 50.5739
rfemur -5.8951 2.44742 13.4305
rtibia 44.8171
rfoot -29.6833 5.50434
rtoes -9.8152
lfemur -13.2492 8.71215 -9.18207
ltibia 51.9595
lfoot -30.2431 -4.43624
ltoes -11.7603
907
root 1.567 16.4578 5.23608 -7.74439 -129.658 6.19747
lowerback 8.56066 -0.0210789 -4.01948
upperback -3.81997 -0.604325 -0.569399
thorax -8.8455 -0.0951094 1.7553
lowerneck -21.7177 -4.7613 -15.4685
upperneck -12.1566 -4.00284 13.5143
head 0.31635 -1.80746 6.53601
rclavicle 3.63776e-014 2.62396e-014
rhumerus 78.2552 -29.6206 -30.9784
rradius 39.3717
rwrist 24.1086
rhand -46.8905 -1.19609
rfingers 7.12502
rthumb -19.602 -30.2279
lclavicle 3.63776e-014 2.62396e-014
lhumerus 71.9021 32.4094 24.4374
lradius 42.9285
lwrist -2.45447
lhand -16.7064 20.1923
lfingers 7.12502
lthumb 9.51863 49.9573
rfemur -6.0682 2.58899 13.0421
rtibia 45.2566
rfoot -29.477 6.21975
rtoes -9.58607
lfemur -12.8484 9.2663 -9.35635
ltibia 51.8679
lfoot -30.6904 -4.19572
ltoes -12.1951
908
root 1.55382 16.4535 5.25129 -7.65795 -130.022 6.06078
lowerback 8.49155 0.0612117 -3.80531
upperback -3.76703 -0.484991 -0.807323
thorax -8.75668 -0.0608284 1.36278
lowerneck -21.7165 -4.80447 -15.4076
upperneck -12.4076 -4.08845 13.5706
head 0.254039 -1.86175 6.54236
rclavicle 1.12612e-013 -7.95139e-015
rhumerus 77.6659 -29.7091 -30.9819
rradius 39.728
rwrist 23.7839
rhand -45.6663 -1.57206
rfingers 7.12502
rthumb -18.4247 -30.7195
lclavicle 1.12612e-013 -7.95139e-015
lhumerus 70.83 31.7342 23.8517
lradius 44.8314
lwrist -2.98316
lhand -16.9878 19.6313
lfingers 7.12502
lthumb 9.24714 49.4085
rfemur -6.38883 2.67921 12.7709
rtibia 45.6352
rfoot -29.0519 6.79096
rtoes -10.2004
lfemur -12.6892 9.61333 -9.42042
ltibia 51.9027
lfoot -30.8405 -4.34464
ltoes -12.0578
